<?xml version="1.0" encoding="UTF-8"?>
<svg width="600" height="400" viewBox="0 0 600 400" fill="none" xmlns="http://www.w3.org/2000/svg">
    <!-- Background Elements -->
    <circle cx="300" cy="200" r="180" fill="#E3F2FD" opacity="0.5"/>
    <circle cx="300" cy="200" r="150" fill="#BBDEFB" opacity="0.3"/>
    
    <!-- Registration Form -->
    <rect x="150" y="100" width="300" height="200" rx="10" fill="white" stroke="#04AA6D" stroke-width="4"/>
    
    <!-- Form Lines -->
    <line x1="180" y1="140" x2="420" y2="140" stroke="#04AA6D" stroke-width="4" stroke-linecap="round"/>
    <line x1="180" y1="180" x2="420" y2="180" stroke="#04AA6D" stroke-width="4" stroke-linecap="round"/>
    <line x1="180" y1="220" x2="420" y2="220" stroke="#04AA6D" stroke-width="4" stroke-linecap="round"/>
    
    <!-- Checkmark -->
    <circle cx="200" cy="260" r="15" fill="#04AA6D" opacity="0.2"/>
    <path d="M190 260L198 268L210 256" stroke="#04AA6D" stroke-width="4" stroke-linecap="round" stroke-linejoin="round"/>
    
    <!-- Person Icon -->
    <circle cx="450" cy="200" r="30" fill="#04AA6D" opacity="0.2"/>
    <circle cx="450" cy="185" r="12" fill="#04AA6D"/>
    <path d="M425 225C425 210 435 200 450 200C465 200 475 210 475 225" fill="#04AA6D"/>
    
    <!-- Decorative Elements -->
    <g transform="translate(100, 150)">
        <!-- Stars -->
        <path d="M0 0L5 15L-5 15L0 0Z" fill="#04AA6D" opacity="0.3"/>
        <path d="M40 30L45 45L35 45L40 30Z" fill="#04AA6D" opacity="0.3"/>
        <path d="M-20 40L-15 55L-25 55L-20 40Z" fill="#04AA6D" opacity="0.3"/>
    </g>
    
    <g transform="translate(500, 150)">
        <!-- Stars -->
        <path d="M0 0L5 15L-5 15L0 0Z" fill="#04AA6D" opacity="0.3"/>
        <path d="M20 30L25 45L15 45L20 30Z" fill="#04AA6D" opacity="0.3"/>
        <path d="M-20 40L-15 55L-25 55L-20 40Z" fill="#04AA6D" opacity="0.3"/>
    </g>
    
    <!-- Floating Icons -->
    <g transform="translate(150, 80)">
        <circle cx="0" cy="0" r="10" fill="#04AA6D" opacity="0.2"/>
        <circle cx="100" cy="20" r="8" fill="#04AA6D" opacity="0.2"/>
        <circle cx="200" cy="-20" r="12" fill="#04AA6D" opacity="0.2"/>
        <circle cx="300" cy="10" r="15" fill="#04AA6D" opacity="0.2"/>
    </g>
</svg> 